<?xml version="1.0" encoding="iso-8859-1"?>
<!-- Generator: Adobe Illustrator 19.0.0, SVG Export Plug-In . SVG Version: 6.00 Build 0)  -->
<svg version="1.1" id="Capa_1" xmlns="http://www.w3.org/2000/svg" xmlns:xlink="http://www.w3.org/1999/xlink" x="0px" y="0px"
	 viewBox="0 0 399.364 399.364" style="enable-background:new 0 0 399.364 399.364;" xml:space="preserve">
<g id="XMLID_7_">
	<polygon id="XMLID_239_" style="fill:#91DC5A;" points="199.718,219.791 199.75,219.736 123.477,244.481 76.343,389.543 
		76.315,389.629 	"/>
	<polygon id="XMLID_240_" style="fill:#00D7DF;" points="323.157,389.543 276.059,244.589 276.086,244.569 199.81,219.771 	"/>
	<polygon id="XMLID_241_" style="fill:#933EC5;" points="399.364,154.883 246.911,154.883 199.75,219.736 	"/>
	<polygon id="XMLID_242_" style="fill:#EA348B;" points="199.75,219.736 199.75,9.736 152.602,154.842 152.645,154.842 	"/>
	<polygon id="XMLID_243_" style="fill:#FF9811;" points="0.02,154.883 123.441,244.589 123.477,244.481 199.75,219.736 	"/>
	<polygon id="XMLID_244_" style="fill:#64C37D;" points="199.75,219.747 199.718,219.791 76.343,389.543 199.75,299.939 
		199.75,299.922 199.75,219.751 	"/>
	<polygon id="XMLID_245_" style="fill:#F7AED1;" points="246.911,154.883 199.75,9.736 199.75,219.736 	"/>
	<polygon id="XMLID_307_" style="fill:#FFDA44;" points="152.645,154.842 152.602,154.842 0,154.876 0.02,154.883 199.75,219.736 	
		"/>
	<polygon id="XMLID_308_" style="fill:#99EFF2;" points="199.75,219.751 199.75,299.922 323.157,389.543 	"/>
	<polygon id="XMLID_309_" style="fill:#7C84E8;" points="199.75,219.747 199.75,219.751 199.81,219.771 276.086,244.569 
		399.364,154.883 199.75,219.736 	"/>
</g>
<g>
</g>
<g>
</g>
<g>
</g>
<g>
</g>
<g>
</g>
<g>
</g>
<g>
</g>
<g>
</g>
<g>
</g>
<g>
</g>
<g>
</g>
<g>
</g>
<g>
</g>
<g>
</g>
<g>
</g>
</svg>
